<?xml version="1.0" encoding="UTF-8" standalone="no"?>
<svg
   xmlns:dc="http://purl.org/dc/elements/1.1/"
   xmlns:cc="http://creativecommons.org/ns#"
   xmlns:rdf="http://www.w3.org/1999/02/22-rdf-syntax-ns#"
   xmlns:svg="http://www.w3.org/2000/svg"
   xmlns="http://www.w3.org/2000/svg"
   version="1.1"
   id="svg2"
   viewBox="0 0 309.89875 301.39072"
   height="301.39072"
   width="309.89874">
  <defs
     id="defs4" />
  <metadata
     id="metadata7">
    <rdf:RDF>
      <cc:Work
         rdf:about="">
        <dc:format>image/svg+xml</dc:format>
        <dc:type
           rdf:resource="http://purl.org/dc/dcmitype/StillImage" />
        <dc:title></dc:title>
      </cc:Work>
    </rdf:RDF>
  </metadata>
  <g
     transform="translate(-52.119977,-96.847656)"
     id="layer1">
    <path
       id="path4228"
       d="m 85.033203,96.847656 -3.230469,3.445314 c -4.09172,4.3626 -5.628699,8.97222 -4.943359,14.83398 1.07753,9.21619 -1.545289,13.25795 -3.917969,6.03711 -1.23935,-3.77176 -4.24796,-4.98707 -6.28125,-2.53711 -1.7197,2.07211 0.299402,5.61133 3.201172,5.61133 3.86447,0 4.975686,3.30929 4.160156,12.38477 -0.71888,7.99991 -2.220395,8.52013 -2.384765,0.82617 -0.09767,-4.5713 -3.18438,-10.17868 -8,-14.5293 -2.24142,-2.02499 -4.356902,-3.68164 -4.701172,-3.68164 -0.82571,0 0.420242,9.43638 1.914062,14.49414 0.77594,2.62715 3.036595,5.76224 6.609375,9.16797 l 5.429688,5.17578 0.294922,8.33203 c 0.27893,7.89539 0.243414,8.05267 -0.660156,3.03321 -1.60709,-8.92751 -4.829316,-13.50635 -12.166016,-17.28907 -2.04059,-1.05211 -3.896157,-1.91406 -4.123047,-1.91406 -0.2269,0 0.435446,3.7125 1.472656,8.25 1.98321,8.67597 2.019702,8.72873 11.607422,16.43555 3.93406,3.16228 6.6826,7.68674 8.3125,13.6875 0.79355,2.92159 0.750912,2.99493 -0.634765,1.12695 -0.81599,-1.1 -2.933639,-4.21731 -4.705079,-6.92773 -1.77143,-2.71041 -4.410727,-5.80152 -5.867187,-6.86914 -2.58189,-1.89262 -13.006406,-5.88227 -13.660156,-5.22852 -0.18035,0.18035 0.874186,2.69756 2.341796,5.59375 3.275591,6.46406 11.954192,15.33744 15.984376,16.34375 5.22319,1.3042 9.27585,4.53079 11.52539,9.17773 1.20198,2.48297 1.921883,4.77733 1.601563,5.09766 -1.479,1.47899 -6.836382,-2.30811 -9.800782,-6.92773 -2.19607,-3.42228 -4.521746,-5.61594 -7.285156,-6.8711 -4.1654,-1.89196 -14.020486,-2.56798 -14.972656,-1.02734 -0.71546,1.15764 9.955487,12.85097 13.310547,14.58594 1.46836,0.75931 5.902082,1.62561 9.851562,1.92383 7.02888,0.5307 13.25,2.71547 13.25,4.65429 0,1.43855 -0.89694,1.20172 -3.65625,-0.96875 -2.74125,-2.15627 -5.612746,-1.69677 -5.128906,0.82031 0.2065,1.07425 1.735122,1.81353 4.513672,2.18555 4.23162,0.56656 7.598736,2.81105 9.472656,6.3125 0.91647,1.71244 0.73641,1.82947 -1.84375,1.20117 -1.57171,-0.38273 -5.489441,-2.52901 -8.707031,-4.76953 -6.90019,-4.80486 -11.2104,-5.56778 -21.59375,-3.8164 l -7.224609,1.21875 8.058593,5.39648 c 8.56001,5.73097 11.191378,6.35021 18.142578,4.26758 5.91191,-1.77125 14.730009,-0.28862 17.886719,3.00781 3.692522,3.85596 7.080082,8.03625 7.080082,8.73633 0,1.27085 -5.50319,-0.86731 -9.744144,-3.78516 -7.88316,-5.42375 -10.817,-5.3752 -23.50586,0.39453 -6.73217,3.06118 -8.464741,4.77344 -4.832031,4.77344 1.05441,0 4.06378,0.92026 6.6875,2.04492 6.98253,2.99306 12.231534,3.4352 18.646484,1.57032 10.026971,-2.91492 17.527821,-1.83189 22.070311,3.1875 1.77745,1.96407 1.74974,2.02278 -1.25,2.68164 -2.0392,0.44788 -5.10601,-0.0319 -9.15625,-1.4336 -4.20051,-1.45366 -7.225951,-1.90864 -9.751951,-1.46679 -4.40775,0.77102 -10.795907,4.29766 -14.003907,7.73242 l -2.341796,2.50781 7.667968,1.70508 c 11.36962,2.5295 16.864046,1.76423 23.999996,-3.3457 3.21242,-2.30038 6.79611,-4.1836 7.96485,-4.1836 1.16874,0 3.68367,1.33329 5.58789,2.96094 3.11547,2.66296 3.24358,2.9634 1.2832,3 -1.19822,0.0224 -2.81761,-0.60082 -3.59961,-1.38281 -3.22495,-3.22496 -7.93366,-1.17799 -6.41211,2.78711 0.68512,1.78541 5.19279,2.24741 6.18946,0.63476 0.89857,-1.45391 6.02828,-1.22417 10.0332,0.44922 8.39489,3.50761 0.03,5.69246 -11.61328,3.0332 -7.50026,-1.71304 -8.02355,-1.714 -12.47071,-0.0156 -2.83659,1.08331 -6.76863,3.93358 -10.10937,7.32812 -6.5585,6.66413 -6.1557,7.19316 6.0332,7.93946 10.62474,0.65053 14.85548,-0.62686 22.12696,-6.68555 6.96648,-5.80457 11.08917,-7.53807 14.59375,-6.13672 2.28068,0.91196 2.23374,0.96529 -0.90821,1.02539 -1.82366,0.0349 -4.18616,0.52831 -5.25,1.09766 -2.18483,1.16929 -2.5703,3.56384 -0.68554,4.26367 0.70383,0.26134 0.054,0.94077 -1.48829,1.55469 -3.48084,1.38556 -10.66248,8.84603 -13.67773,14.21093 l -2.32031,4.12891 7.86914,-0.66992 c 9.33682,-0.79533 17.06214,-2.85506 19.97656,-5.32617 1.15967,-0.98327 3.23525,-3.57489 4.61328,-5.75782 2.68651,-4.25571 4.25766,-5.76459 7.02735,-6.75195 3.0559,-1.08939 1.88292,1.01525 -1.30079,2.33399 -2.23968,0.92771 -2.97088,1.82388 -2.75,3.37109 0.47907,3.35558 4.36208,3.30094 5.97657,-0.084 1.0058,-2.10875 2.16799,-2.88684 4.66797,-3.12696 2.76735,-0.26581 3.27211,-0.0124 2.98242,1.5 -0.3755,1.96039 -4.64957,4.29809 -11.81055,6.46289 -3.60082,1.08854 -4.93013,2.16456 -6.74414,5.45899 -2.02892,3.68472 -4.5636,15.77038 -3.52539,16.80859 0.60876,0.60876 14.21988,-4.1592 16.91602,-5.92578 3.74152,-2.45154 5.21944,-5.59819 6.33984,-13.49805 0.58081,-4.09521 1.3807,-7.76879 1.77734,-8.16406 0.39663,-0.39526 5.43138,0.46216 11.1875,1.90625 5.75612,1.44409 9.91862,2.80838 9.25,3.03125 -1.50558,0.50186 -1.60922,4.879 -0.13672,5.78906 0.59404,0.36713 5.0872,-0.1113 9.98438,-1.0625 8.4124,-1.63396 9.42787,-1.63511 18.37891,-0.0234 5.21075,0.93823 9.9426,1.41666 10.51562,1.0625 1.45187,-0.89731 1.30669,-5.27211 -0.19141,-5.77148 -1.13805,-0.37935 10.63588,-3.89646 17.8418,-5.33008 l 3.10742,-0.61914 1.03516,8.11133 c 1.105,8.65572 2.67885,12.00791 6.94726,14.80469 3.04891,1.99772 15.39312,6.33798 16.34766,5.74804 1.2592,-0.77823 -1.11219,-12.85992 -3.30273,-16.82617 -2.2156,-4.01161 -4.83881,-5.56107 -12.01953,-7.09961 -2.87215,-0.61539 -6.72461,-3.79248 -6.72461,-5.54492 0,-0.55 1.53115,-1 3.40234,-1 2.8991,0 3.56176,0.4556 4.47461,3.07422 0.8352,2.39586 1.57276,3.00185 3.34766,2.75 3.67931,-0.52207 3.56395,-4.35267 -0.16993,-5.6543 -1.67984,-0.5856 -3.05468,-1.53857 -3.05468,-2.11718 0,-3.08315 4.5635,0.41428 8.92968,6.84375 4.70742,6.93199 8.41943,8.77059 20.50196,10.16015 12.61109,1.45034 12.07733,1.62249 9.46289,-3.0293 -2.74008,-4.87531 -9.35815,-11.68898 -13.39453,-13.78906 -1.6796,-0.87385 -2.44981,-1.74609 -1.75,-1.98242 1.98045,-0.66881 1.45303,-4.05583 -0.74024,-4.75195 -1.09508,-0.34757 -2.42545,-0.36444 -2.95508,-0.0371 -0.52963,0.32733 -2.16342,0.29263 -3.63281,-0.0762 -2.27233,-0.57031 -2.42296,-0.80961 -1.00781,-1.60157 3.52845,-1.97462 9.86719,0.72499 17.23242,7.33789 4.36797,3.9218 9.46966,5.85819 15.45703,5.86719 6.698,0.0104 15.89649,-1.27164 15.89649,-2.2168 0,-1.77629 -7.34761,-9.90537 -10.36329,-11.46484 -5.73459,-2.96547 -8.42657,-3.20981 -17.88867,-1.62109 -7.54317,1.26653 -9.80104,1.32392 -12.24804,0.30859 l -3,-1.24414 4,-1.85156 c 4.36851,-2.02148 10.02203,-2.48668 11,-0.9043 0.99667,1.61265 5.50628,1.15065 6.1914,-0.63476 1.52155,-3.9651 -3.18716,-6.01207 -6.41211,-2.78711 -1.48553,1.48552 -5.28702,1.97064 -5.26562,0.67187 0.0201,-1.2181 6.79659,-5.25 8.82422,-5.25 1.02638,0 3.39678,1.11006 5.26562,2.4668 1.86883,1.35675 4.43437,3.22534 5.70313,4.15234 1.26877,0.927 4.50947,1.89761 7.20117,2.15625 4.69138,0.45078 17.02881,-1.25713 19.83594,-2.74609 1.88555,-1.00013 -5.8711,-7.49238 -11.53711,-9.65625 -4.09489,-1.56383 -4.79369,-1.56573 -10.33399,-0.0254 -3.26828,0.90867 -8.07727,1.65234 -10.6875,1.65234 l -4.74609,0 3.18359,-3.18164 c 2.69927,-2.69928 4.07937,-3.24862 9.09375,-3.61133 3.6949,-0.26726 7.99129,0.17721 11.45313,1.1836 3.04673,0.88571 6.59441,1.6027 7.88476,1.5957 2.15106,-0.0123 18.43753,-5.24223 19.4375,-6.24219 0.23769,-0.23769 -2.58734,-1.96495 -6.27734,-3.83789 -5.437,-2.75968 -7.85704,-3.40625 -12.76172,-3.40625 -5.20732,0 -6.70764,0.45595 -10.75391,3.26563 -2.58653,1.79605 -6.1696,3.55968 -7.96093,3.91797 l -3.25586,0.65039 4.95898,-5.62696 c 4.03706,-4.57989 5.84794,-5.83823 9.73633,-6.77148 2.62741,-0.63063 6.45241,-0.87444 8.5,-0.54102 13.17704,2.14567 12.25613,2.30779 21.02734,-3.69922 l 8.08008,-5.5332 -7.08398,-1.19531 c -10.17819,-1.71677 -14.45758,-0.95257 -21.51758,3.8418 -3.31076,2.24829 -7.25125,4.39727 -8.75781,4.77539 -2.45782,0.61687 -2.63609,0.49447 -1.72461,-1.19727 2.08482,-3.86948 5.87763,-6.45334 9.78906,-6.66992 2.80177,-0.15514 3.98011,-0.70483 4.22266,-1.96875 0.54451,-2.83748 -2.64237,-3.25563 -5.35938,-0.70313 -2.853,2.68025 -4.04648,2.24986 -1.97265,-0.71093 1.18871,-1.69713 2.85691,-2.13393 9.78906,-2.56641 4.68264,-0.29214 9.70806,-1.22096 11.42968,-2.11133 3.65587,-1.89052 14.47631,-13.56285 13.71485,-14.79492 -0.95466,-1.54466 -10.80919,-0.86466 -14.99219,1.03516 -2.70359,1.22791 -5.05938,3.4014 -6.98633,6.44726 -2.81217,4.44509 -8.65919,8.76461 -10.02148,7.40235 -0.36654,-0.36655 0.43532,-2.82074 1.7832,-5.45508 2.14618,-4.19455 3.36433,-5.23499 9.8086,-8.36719 4.42786,-2.15215 8.78844,-5.18646 10.94726,-7.61914 3.51237,-3.95795 9.59595,-14.08765 8.88672,-14.79688 -0.19719,-0.19719 -3.05281,0.54231 -6.34766,1.64453 -6.9446,2.32323 -11.68762,6.42457 -15.0625,13.02735 -3.20667,6.2737 -4.66995,6.93679 -2.99023,1.35547 1.99905,-6.64232 4.61513,-10.22526 10.09375,-13.82813 2.6809,-1.76303 5.65838,-4.55703 6.61523,-6.20703 1.61376,-2.78277 5.04369,-16.5658 4.31641,-17.3457 -0.53626,-0.57506 -8.77132,5.4425 -11.74414,8.58203 -1.88738,1.99322 -3.17757,4.89421 -4.02344,9.04101 -0.68506,3.35844 -1.63904,6.46935 -2.11914,6.91407 -0.49107,0.45489 -0.59495,-0.28498 -0.23828,-1.69141 0.34869,-1.375 0.63848,-4.95225 0.64648,-7.94922 0.0131,-5.24194 0.20448,-5.62647 5.0293,-10.15625 5.77064,-5.41777 8.47561,-10.92681 9.46485,-19.27539 l 0.69726,-5.88086 -2.83789,2.03321 c -6.16809,4.41848 -10.33984,11.1209 -10.33984,16.61523 0,6.31566 -1.48206,5.81097 -2.60547,-0.88672 -1.01463,-6.04915 -0.95577,-7.37355 0.43164,-9.75 0.88302,-1.5125 2.13381,-2.75 2.7793,-2.75 0.64548,0 2.22136,-0.8478 3.50195,-1.88476 2.02631,-1.64081 2.15026,-2.10167 0.94922,-3.54883 -2.21947,-2.6743 -5.40581,-1.53258 -6.67383,2.39062 -2.41536,7.47297 -4.46823,3.98158 -3.65039,-6.20703 0.57689,-7.18682 -0.60511,-10.39723 -5.56445,-15.111327 l -3.01172,-2.863281 -1.07227,3.863278 c -2.12788,7.66342 -1.51766,10.15445 4.37109,17.86914 3.03905,3.98137 6.29283,13.07826 5.10352,14.26758 -0.29264,0.29264 -1.60985,-1.89905 -2.92773,-4.87109 -2.8403,-6.40538 -4.53041,-8.07493 -10.96289,-10.83203 -7.02903,-3.01278 -7.71589,-2.83552 -6.47461,1.67773 2.02946,7.37903 4.72112,11.30975 9.11523,13.30469 2.30523,1.04658 5.00078,1.91173 5.98828,1.92383 3.25329,0.0398 6.70658,4.55728 6.67188,8.72656 l -0.0312,3.79492 -2.21875,-2.60547 c -1.22012,-1.43332 -2.69614,-3.42543 -3.28125,-4.42773 -0.67827,-1.16194 -1.67496,-1.58831 -2.75,-1.17578 -3.3163,1.27258 -1.33791,6.70898 2.4414,6.70898 0.95008,0 2.65891,1.1856 3.79883,2.63477 2.39254,3.04162 2.6685,10.53777 0.69531,18.86523 l -1.18359,5 -1.8125,-2.7168 c -1.3602,-2.03883 -1.64737,-3.69506 -1.15039,-6.63671 0.95735,-5.66645 -0.79573,-10.85791 -6.67774,-19.77735 l -5.18945,-7.86914 -0.78125,4 c -1.08301,5.54379 0.0445,15.30971 2.25195,19.5 1.01409,1.925 3.89969,5.71911 6.41016,8.43164 2.51048,2.71253 4.84229,6.04446 5.18359,7.4043 0.69513,2.7696 -3.22463,16.16406 -4.73046,16.16406 -0.51828,0 -0.94336,-3.38858 -0.94336,-7.53125 0,-4.14266 -0.60732,-8.98516 -1.34961,-10.76172 -1.31444,-3.14589 -11.89321,-13.70703 -13.73047,-13.70703 -1.41538,0 -1.09003,7.92362 0.58984,14.37305 1.55911,5.98584 5.3497,12.33422 9.88477,16.55273 3.5575,3.30919 3.40362,7.5286 -0.48828,13.4043 -1.70183,2.56929 -3.54084,4.66992 -4.08594,4.66992 -0.6282,0 -0.73564,-2.71679 -0.29492,-7.41992 0.62079,-6.62473 0.43196,-7.99111 -1.76563,-12.75 -1.35375,-2.93156 -3.74595,-6.59722 -5.31445,-8.14648 l -2.85156,-2.81641 -0.85157,2.30273 c -1.27118,3.43634 -1.13909,16.89504 0.19922,20.33008 0.64285,1.65 2.94321,4.6358 5.11328,6.63477 4.26771,3.9312 4.71695,5.42934 2.52735,8.42383 -1.94267,2.65675 -2.93239,1.30749 -1.44141,-1.96485 1.01838,-2.23512 0.94843,-2.93243 -0.43164,-4.3125 -1.52829,-1.52829 -1.7843,-1.52146 -3.58203,0.10547 -1.87003,1.69235 -1.96023,1.64866 -2.60547,-1.28906 -0.77799,-3.54218 -7.57308,-13.20479 -8.97461,-12.76172 -1.67127,0.52836 -2.75139,6.94394 -2.35547,13.99805 0.37231,6.63349 0.50657,6.93731 4.59571,10.33398 4.65932,3.87029 5.21963,6.11152 2.20703,8.83789 -2.27454,2.05843 -3.92084,1.31809 -2.0586,-0.92578 1.87767,-2.26245 0.92441,-6.02881 -1.61718,-6.39063 -3.03003,-0.43137 -4.74186,2.87278 -2.81055,5.42383 2.07961,2.74692 1.81521,4.91284 -0.98828,8.08203 -3.25089,3.67495 -4.39754,2.0212 -3.4375,-4.96093 0.39584,-2.87888 0.2746,-7.09219 -0.26953,-9.36328 -1.05906,-4.42038 -6.11004,-11.3711 -8.26368,-11.3711 -2.32684,0 -6.23868,13.11067 -5.17578,17.3457 0.32945,1.31262 3.09473,4.51976 6.14649,7.12696 4.33356,3.70228 5.30518,5.0346 4.4375,6.08008 -1.21923,1.46909 -10.25481,7.44726 -11.25586,7.44726 -0.34362,0 -0.37086,-2.8125 -0.0606,-6.25 0.52661,-5.83379 0.35926,-6.52941 -2.51758,-10.46289 -3.3937,-4.64018 -8.57873,-7.9741 -9.66601,-6.21484 -1.02731,1.66223 -1.78875,12.46555 -1.07813,15.29687 0.36747,1.46412 2.54893,3.8603 5.13086,5.63672 2.47035,1.69964 4.48642,3.40689 4.48242,3.79297 -0.009,0.77558 -7.41425,5.20527 -8.68945,5.19727 -0.44103,-0.003 0.5121,-1.05552 2.11719,-2.33985 3.66203,-2.9302 3.01835,-5.95373 -1.16406,-5.47265 -2.49052,0.28647 -2.75586,0.6988 -2.75586,4.27929 0,3.22345 -0.46586,4.19641 -2.5,5.22071 -3.14719,1.58471 -3.37398,0.87695 -1.60352,-5.00586 1.85794,-6.17347 0.75717,-10.14897 -4.38281,-15.81641 -4.36909,-4.81746 -5.08204,-4.60126 -7.00391,2.13867 -2.4132,8.46305 -1.39301,11.46495 5.88281,17.29883 3.11573,2.49824 2.27772,3.928 -3.45703,5.89062 -4.63064,1.58475 -5.01648,1.58475 -6.27148,0 -0.91532,-1.15585 -1.18368,-3.49718 -0.84766,-7.42187 0.57131,-6.67286 -1.91672,-12.76584 -6.61328,-16.18945 -3.59914,-2.62363 -4.6661,-1.20476 -4.6875,6.23828 -0.0181,6.30257 0.99036,8.48563 6.13086,13.28125 4.91927,4.58923 4.94403,6.54007 0.10352,7.80468 -26.48312,6.91918 -34.63939,7.24695 -54.98047,2.20508 l -13.23047,-3.27929 1.46094,-2.82618 c 0.80369,-1.55416 2.76481,-3.87816 4.35742,-5.16406 1.59262,-1.28589 3.4238,-3.3631 4.07031,-4.61719 1.28425,-2.49115 1.23417,-14.00209 -0.0644,-14.80468 -1.48238,-0.91616 -5.91701,2.82261 -8.42578,7.10351 -2.13701,3.64653 -2.3929,4.99558 -1.83985,9.70117 0.84498,7.18952 -0.51898,9.95785 -4.3457,8.82813 -4.86312,-1.43568 -8.25195,-3.33518 -8.25195,-4.62695 0,-0.69185 1.49756,-2.18311 3.32812,-3.31446 3.85789,-2.3843 5.67188,-5.78461 5.67188,-10.63281 0,-3.73366 -2.71762,-11.47461 -4.0293,-11.47461 -1.36626,0 -8.00656,8.29611 -8.63086,10.7832 -0.64192,2.55762 0.0218,9.69485 1.1582,12.4668 0.5411,1.31981 0.22913,1.75 -1.26757,1.75 -2.86386,0 -4.32513,-2.26891 -3.64649,-5.66211 0.70472,-3.52358 -1.45208,-5.83009 -4.53516,-4.85156 -2.65636,0.84311 -2.63469,4.13065 0.0371,5.56055 1.1471,0.61391 1.80476,1.39642 1.46094,1.74023 -0.74987,0.74988 -7.54687,-2.75926 -7.54687,-3.89648 0,-0.43771 1.18115,-1.60557 2.62304,-2.59375 7.17446,-4.91663 7.66777,-5.8641 7.16407,-13.71289 -0.25606,-3.98999 -0.78701,-7.7775 -1.18164,-8.41602 -1.15252,-1.86482 -6.21864,1.32278 -9.72657,6.11914 -2.87684,3.93348 -3.04419,4.6291 -2.51758,10.46289 0.31035,3.4375 0.28312,6.25 -0.0605,6.25 -1.00152,0 -10.03783,-5.97919 -11.25781,-7.44922 -0.8608,-1.03718 -0.40913,-1.87223 2,-3.69531 7.26603,-5.49856 7.95778,-6.50664 7.9375,-11.55859 -0.0106,-2.6375 -0.60162,-7.04688 -1.31446,-9.79688 -1.61526,-6.23147 -3.7043,-6.53199 -8.05469,-1.1582 -2.91643,3.60252 -3.14248,4.47493 -3.61132,14 l -0.5,10.1582 -2.75,-2.70312 c -3.04737,-2.997 -3.40658,-5.34275 -1.25586,-8.1836 1.76186,-2.32722 0.34406,-5.61328 -2.42188,-5.61328 -2.3264,0 -3.38133,2.55452 -2.06836,5.00781 0.54802,1.024 0.9961,2.64454 0.9961,3.60157 0,1.49112 -0.35765,1.40325 -2.5,-0.60938 -1.375,-1.29175 -2.5,-2.92986 -2.5,-3.64062 0,-0.71077 1.96542,-3.50474 4.36718,-6.20899 5.12214,-5.76725 6.22393,-9.98585 4.62305,-17.69726 -1.31728,-6.34529 -2.36788,-7.32423 -5.1582,-4.80079 -4.44849,4.02302 -6.31164,9.36517 -6.30664,18.09766 0.002,4.5375 -0.17782,8.25 -0.40039,8.25 -0.22258,0 -1.00179,-0.7875 -1.73243,-1.75 -1.65593,-2.18141 -1.73949,-4.72078 -0.23437,-7.13086 0.6368,-1.01968 0.87579,-2.58848 0.53125,-3.48633 -0.73189,-1.90727 -4.632781,-2.21802 -4.806641,-0.38281 -0.18014,1.90148 -0.162168,2.06755 0.554691,4.75 l 0.66797,2.5 -2.052739,-2.35937 c -2.9545,-3.39767 -2.597186,-4.76102 2.451169,-9.35547 2.92214,-2.65939 4.87044,-5.45862 5.54688,-7.97071 1.0175,-3.77871 0.41908,-14.2259 -1.04688,-18.28515 -0.65735,-1.8202 -0.95109,-1.70966 -3.83984,1.45312 -5.269898,5.76978 -6.664064,9.64171 -6.664064,18.51758 0,4.4 -0.340019,8.225 -0.755859,8.5 -0.41585,0.275 -2.3284,-2.10889 -4.25,-5.29883 -3.32467,-5.5191 -3.421443,-5.94015 -2.007813,-8.67383 0.81705,-1.58 3.297902,-4.96722 5.513672,-7.52734 2.21577,-2.56012 4.773604,-6.08124 5.683594,-7.82617 1.7827,-3.41848 3.16835,-18.67597 1.69531,-18.66797 -0.48317,0.003 -3.089496,1.69027 -5.792966,3.75 -6.82211,5.19767 -8.997517,9.80611 -9.435547,19.99414 -0.33786,7.85829 -1.268517,10.31019 -2.466797,6.5 -0.30271,-0.9625 -1.28737,-3.75919 -2.1875,-6.2168 -2.30268,-6.28707 -1.300624,-9.98794 4.398438,-16.24414 2.649899,-2.90896 5.511859,-6.63849 6.359374,-8.28906 2.063823,-4.01931 3.016787,-12.96239 1.972657,-18.5 l -0.847657,-4.5 -5.18164,7.86914 c -5.87692,8.9225 -7.628715,14.11386 -6.671875,19.77735 0.49288,2.91737 0.206502,4.61457 -1.117188,6.63476 l -1.777343,2.71485 -1.296875,-4.99805 c -0.71249,-2.74867 -1.303866,-7.52495 -1.314453,-10.61328 -0.02256,-6.56576 2.422006,-10.57123 6.753906,-11.07032 2.2946,-0.26437 2.726562,-0.79106 2.726562,-3.31445 0,-2.35798 -0.484671,-3.06895 -2.269531,-3.32226 -1.78547,-0.2534 -2.585218,0.42664 -3.736328,3.18164 -2.08305,4.98542 -3.494141,5.45166 -3.494141,1.15429 0,-3.97556 3.552018,-8.49655 6.705078,-8.53515 0.9875,-0.0121 3.68111,-0.87725 5.986328,-1.92383 4.39411,-1.99494 7.087728,-5.92566 9.117188,-13.30469 1.24128,-4.51325 0.554411,-4.69051 -6.474609,-1.67773 -6.40492,2.74528 -8.123552,4.42917 -10.894532,10.67773 -2.73821,6.17465 -3.799199,6.73271 -2.849609,1.5 0.81736,-4.50408 3.647047,-10.37079 5.904297,-12.24414 4.27853,-3.55087 5.357779,-9.17071 3.162109,-16.45117 L 85.033203,96.847656 Z M 212.9668,100.13672 c -0.10587,0.0739 -0.041,0.0324 -0.11328,0.082 0.0258,2.2e-4 0.0527,-6.4e-4 0.0781,0 0.0244,-0.0264 0.0479,-0.0536 0.0723,-0.0801 l -0.0371,-0.002 z m -65.41797,2.05469 c -0.0493,0.002 -0.12289,0.005 -0.17188,0.008 0.0425,0.0127 0.0845,0.0246 0.12696,0.0371 0.0156,-0.0143 0.0293,-0.0306 0.0449,-0.0449 z m -11.87891,0.76171 c -0.0532,0.0179 -0.0442,0.0339 -0.002,0.0488 8.1e-4,-0.0163 9.7e-4,-0.0325 0.002,-0.0488 z m 12.69922,9.39649 c -0.0269,0.0183 -0.0514,0.04 -0.0781,0.0586 0.004,0.01 0.009,0.0195 0.0137,0.0293 0.0296,-0.0386 0.0955,-0.10902 0.0644,-0.0879 z m 17.22656,38.73828 c 0.0261,0.0402 0.0534,0.089 0.0781,0.125 0.0522,0.0771 -0.10915,-0.17162 -0.0781,-0.125 z m 135.55469,3.63867 c -0.003,4e-4 -0.006,0.002 -0.01,0.002 -5.8e-4,0.003 -0.001,0.005 -0.002,0.008 0.008,-0.005 0.004,-0.005 0.0117,-0.01 z m -1.84375,3.88086 c -0.0178,0.007 -0.0321,0.013 -0.0488,0.0195 -0.004,0.0142 -0.008,0.0273 -0.0117,0.041 0.0207,-0.02 0.0401,-0.0405 0.0606,-0.0606 z m -5.8418,0.80274 c -0.0223,0.0215 -0.0344,0.0551 -0.0508,0.084 0.0127,-0.0178 0.0336,-0.0402 0.0469,-0.0586 0.002,-0.008 0.002,-0.017 0.004,-0.0254 z m 0.26172,3.50195 c -0.01,0.004 -0.0195,0.009 -0.0293,0.0137 0.0843,-0.002 0.15865,0.005 0.25781,-0.01 -0.0762,-7.6e-4 -0.15248,-0.003 -0.22852,-0.004 z m 0.30664,0.002 c -0.0249,5e-5 -0.0492,0.002 -0.0742,0.002 -0.03,0.0716 -0.0568,0.12262 -0.0879,0.1875 0.0537,-0.0634 0.11068,-0.12195 0.16211,-0.18946 z m -0.16211,0.18946 c -0.007,0.009 -0.016,0.0149 -0.0234,0.0234 0.006,-0.004 0.0119,-0.008 0.0176,-0.0117 0.002,-0.004 0.004,-0.007 0.006,-0.0117 z m -0.43945,-0.0312 c -0.0118,0.007 -0.0234,0.0157 -0.0352,0.0234 -0.022,0.035 -0.0438,0.0699 -0.0664,0.10547 0.0213,-0.002 0.0429,-0.003 0.0644,-0.004 0.0123,-0.0373 0.0248,-0.0819 0.0371,-0.125 z m -0.10156,0.1289 c -0.011,9e-4 -0.0223,8.7e-4 -0.0332,0.002 -0.006,0.0112 -0.0118,0.0221 -0.0176,0.0332 0.009,0.002 0.0169,0.002 0.0254,0.004 0.008,-0.0132 0.017,-0.0258 0.0254,-0.0391 z m -133.17969,3.43164 c -0.006,0.007 -0.006,0.009 -0.0117,0.0156 0.007,-0.002 0.007,-0.0119 0.0117,-0.0156 z m 47.56445,10.19727 c -0.0366,0.1258 -0.0739,0.25141 -0.11132,0.37695 0.0421,-0.0271 0.0846,-0.0534 0.12695,-0.0801 l -0.0156,-0.29687 z m 24.45899,10.4082 c -0.0113,0.09 -0.0459,0.197 -0.0899,0.3125 0.10941,-0.10835 0.23127,-0.22474 0.32032,-0.3125 l -0.23047,0 z m -43.72071,2.6211 c -0.003,0.001 -0.006,0.003 -0.01,0.004 -0.001,0.003 -0.002,0.005 -0.004,0.008 0.005,-0.004 0.009,-0.008 0.0137,-0.0117 z m 53.73829,4.36718 c -0.0609,0.0392 -0.0541,0.0358 -0.10743,0.0703 0.004,0.012 0.004,0.0252 0.008,0.0371 0.0146,0.0465 0.14055,-0.13376 0.0996,-0.10742 z m 67.01757,17.59961 c 0.25806,-0.004 0.57197,0.17464 0.98047,0.51367 1.73105,1.43665 1.72479,4.85832 -0.0137,7.14844 -0.73064,0.9625 -1.61689,1.75 -1.96875,1.75 -0.80615,0 -0.80848,-4.76657 -0.004,-7.76953 0.30067,-1.12221 0.57578,-1.63632 1.00586,-1.64258 z m -38.77148,44.38477 c 2.82242,0.0306 5.45782,0.7333 6.62891,2.02734 1.7644,1.9496 1.74699,2 -0.70508,2 -1.38348,0 -4.49003,0.19675 -6.9043,0.43555 -7.411,0.73304 -10.28032,-1.02419 -5.34375,-3.27344 1.82046,-0.82946 4.129,-1.21329 6.32422,-1.18945 z m -127.13086,0.0781 c 1.85578,0.0286 3.90006,0.41294 5.93945,1.15039 3.88403,1.40448 4.1965,2.33214 1.07032,3.16993 -1.2375,0.33163 -3.15,0.53216 -4.25,0.44726 -9.81275,-0.75778 -11.57219,-1.63832 -7.56446,-3.7832 1.28223,-0.68623 2.94891,-1.013 4.80469,-0.98438 z m 9.25977,52.92969 0,6.50977 0,6.50976 4.25,0.0156 c 7.60362,0.0274 7.23714,-1.56744 7.24414,31.47851 0.007,33.05656 0.37299,31.46479 -7.24414,31.49219 l -4.25,0.0137 0,6.5 0,6.5 46.5,0 46.5,0 0,-18.5 0,-18.5 -6.98047,0 c -7.77881,0 -7.25247,-0.55729 -8.49414,9 -0.8615,6.63109 -4.37594,12.25754 -8.55274,13.69336 -1.93716,0.66592 -9.10906,1.2185 -16.22265,1.25 l -12.75,0.0566 0,-13.5 0,-13.5 4.27734,0 c 7.00989,0 9.35425,2.75623 9.99023,11.75 0.14544,2.05682 0.65715,2.25 5.9668,2.25 l 5.8086,0 -0.27149,-19.75 -0.27148,-19.75 -5.16797,-0.29883 -5.16992,-0.29883 -1.1543,5.56055 c -1.30459,6.28418 -4.06346,8.53711 -10.45703,8.53711 l -3.55078,0 0,-12.09766 0,-12.09765 13.42968,0.34765 c 11.73805,0.30431 13.78349,0.61097 16.25,2.44141 3.52291,2.6144 7.02358,8.68966 7.85938,13.63672 l 0.63672,3.76953 7.4375,0 7.4375,0 -0.27539,-16.25 -0.27539,-16.25 -46.25,-0.25976 -46.25,-0.25977 z m -91.000004,0.0195 0,6.5 0,6.5 4.964844,0 c 3.95462,0 5.185452,0.41164 6.044922,2.01758 0.72038,1.34602 0.981326,11.49579 0.785156,30.53711 -0.32801,31.83956 0.02683,30.40434 -7.544922,30.43164 l -4.25,0.0137 0,6.5 0,6.5 41.500004,0 41.5,0 0,-18.54492 0,-18.54492 -6.75,0.29492 -6.75,0.29492 -0.68946,6.25781 c -0.80038,7.25621 -3.93685,13.4979 -7.68554,15.29297 -1.44306,0.69102 -6.5625,1.46868 -11.375,1.72656 l -8.75,0.46876 0,-29.68946 c 0,-18.55239 0.38826,-30.41235 1.03515,-31.62109 0.81007,-1.51361 2.11489,-1.93555 6,-1.93555 l 4.96485,0 0,-6.5 0,-6.5 -26.500004,0 -26.5,0 z m 191.500004,0.5 -0.29688,6.25 c -0.29287,6.1483 -0.25452,6.25 2.31641,6.25 1.43741,0 3.43782,0.44218 4.44726,0.98242 1.99857,1.0696 26.03321,31.48037 26.03321,32.93946 0,1.47149 -20.92666,25.96767 -23.30274,27.27734 -1.2076,0.66562 -4.22226,1.45563 -6.69726,1.75586 l -4.5,0.54492 -0.3086,4.87305 c -0.1704,2.68012 -0.0719,5.49262 0.21875,6.25 0.42611,1.11041 4.69642,1.37695 22.0586,1.37695 l 21.53125,0 0,-5.5 c 0,-3.025 0.1125,-5.8375 0.25,-6.25 0.1375,-0.4125 -1.775,-0.975 -4.25,-1.25 -2.52878,-0.28098 -4.5,-1.0196 -4.5,-1.6875 0,-1.37959 11.25295,-15.3125 12.36718,-15.3125 1.48304,0 10.27458,13.02872 9.94922,14.74414 -0.20154,1.06268 -1.41607,1.88089 -3.07422,2.07227 -1.89971,0.21927 -2.76506,0.91011 -2.81836,2.25 -0.0423,1.06347 -0.11199,3.84609 -0.15429,6.18359 l -0.0762,4.25 24.90429,0 24.90235,0 0.29882,-6.25 0.29688,-6.25 -3.14258,0 c -1.72888,0 -4.33897,-0.72451 -5.79883,-1.61133 -1.45986,-0.88682 -7.95668,-9.01268 -14.4375,-18.05664 L 317.5,349.12695 328.51758,336.29688 c 6.0597,-7.05708 11.73663,-13.10816 12.61523,-13.44532 0.87861,-0.33715 3.1582,-0.61328 5.06446,-0.61328 l 3.46484,0 -0.29688,-6.25 -0.29882,-6.25 -20,0 -20,0 -0.29493,6.1875 -0.29687,6.1875 3.78711,0.3125 c 2.41946,0.2 3.87584,0.85437 4.0293,1.8125 0.13214,0.825 -2.35265,4.3607 -5.52149,7.85742 l -5.76172,6.35938 -4.29101,-6.11914 c -4.68697,-6.68173 -4.97228,-9.19405 -1.14453,-10.09766 2.31444,-0.54636 2.49414,-1.0204 2.49414,-6.54492 l 0,-5.95508 -24.5,0 -24.5,0 z"
       style="fill:#ffffff" />
  </g>
</svg>
